<svg xmlns="http://www.w3.org/2000/svg" width="512" height="512" viewBox="0 0 512 512" fill="none" role="img" aria-label="AgendaMe icon">
  <defs>
    <linearGradient id="calStroke" x1="74" y1="62" x2="430" y2="438" gradientUnits="userSpaceOnUse">
      <stop offset="0" stop-color="#2563EB"/>
      <stop offset="0.55" stop-color="#06B6D4"/>
      <stop offset="1" stop-color="#2563EB"/>
    </linearGradient>
    <linearGradient id="checkGrad" x1="162" y1="284" x2="446" y2="170" gradientUnits="userSpaceOnUse">
      <stop offset="0" stop-color="#10B981"/>
      <stop offset="0.55" stop-color="#14B8A6"/>
      <stop offset="1" stop-color="#06B6D4"/>
    </linearGradient>
    <filter id="softShadow" x="-20%" y="-20%" width="150%" height="150%" color-interpolation-filters="sRGB">
      <feDropShadow dx="0" dy="18" stdDeviation="14" flood-color="#0F172A" flood-opacity="0.20"/>
    </filter>
    <filter id="miniShadow" x="-20%" y="-20%" width="150%" height="150%" color-interpolation-filters="sRGB">
      <feDropShadow dx="0" dy="8" stdDeviation="6" flood-color="#0F172A" flood-opacity="0.22"/>
    </filter>
  </defs>
  <rect width="512" height="512" rx="112" fill="#0B1120"/>

  <g filter="url(#softShadow)">
    <rect x="72" y="94" width="338" height="316" rx="72" fill="#F8FAFC" stroke="url(#calStroke)" stroke-width="26"/>
    <path d="M125 94H357C386.271 94 410 117.729 410 147V183H72V147C72 117.729 95.729 94 125 94Z" fill="url(#calStroke)"/>

    <rect x="142" y="45" width="39" height="111" rx="19.5" fill="#0F172A"/>
    <rect x="303" y="45" width="39" height="111" rx="19.5" fill="#0F172A"/>
    <rect x="153" y="57" width="16" height="76" rx="8" fill="#DDF6FF" opacity="0.80"/>
    <rect x="314" y="57" width="16" height="76" rx="8" fill="#DDF6FF" opacity="0.80"/>

    <rect x="128" y="223" width="57" height="57" rx="15" fill="#EAF4FF"/>
    <rect x="202" y="223" width="57" height="57" rx="15" fill="#EAF4FF"/>
    <rect x="276" y="223" width="57" height="57" rx="15" fill="#EAF4FF"/>
    <rect x="128" y="301" width="57" height="57" rx="15" fill="#EAF4FF"/>
    <rect x="202" y="301" width="57" height="57" rx="15" fill="#EAF4FF"/>
    <rect x="276" y="301" width="57" height="57" rx="15" fill="#EAF4FF"/>

    <path d="M162 282L234 353L446 158" stroke="url(#checkGrad)" stroke-width="44" stroke-linecap="round" stroke-linejoin="round"/>
  </g>

  <g filter="url(#miniShadow)">
    <circle cx="402" cy="96" r="50" fill="#14B8A6" stroke="#F8FAFC" stroke-width="12"/>
    <path d="M402 69C388.6 69 380 78.6 380 92.4V109.8L371.5 120H432.5L424 109.8V92.4C424 78.6 415.4 69 402 69Z" fill="#F8FAFC"/>
    <path d="M391 126C393.4 132 397.2 135 402 135C406.8 135 410.6 132 413 126" stroke="#F8FAFC" stroke-width="8" stroke-linecap="round"/>
  </g>
</svg>